<svg xmlns="http://www.w3.org/2000/svg" xmlns:xlink="http://www.w3.org/1999/xlink" width="1080" zoomAndPan="magnify" viewBox="0 0 810 809.999993" height="1080" preserveAspectRatio="xMidYMid meet" version="1.0"><defs><clipPath id="0123cf86f3"><path d="M 38.476562 4 L 764 4 L 764 806 L 38.476562 806 Z M 38.476562 4 " clip-rule="nonzero"/></clipPath><clipPath id="60d608c626"><path d="M 38.476562 368 L 461 368 L 461 806 L 38.476562 806 Z M 38.476562 368 " clip-rule="nonzero"/></clipPath></defs><g clip-path="url(#0123cf86f3)"><path fill="#039be5" d="M 100.089844 805.902344 C 94.613281 805.902344 89.101562 805.15625 83.679688 803.648438 C 67.746094 799.238281 54.503906 788.777344 46.375 774.230469 C 41.164062 764.859375 38.4375 754.226562 38.476562 743.480469 L 38.476562 66.789062 C 38.074219 32.769531 65.304688 4.539062 99.195312 4.117188 C 110.453125 3.867188 120.929688 6.828125 130.335938 12.230469 L 736.132812 357.351562 C 762.140625 372.355469 771.226562 405.859375 756.492188 432.050781 C 751.683594 440.621094 744.664062 447.722656 736.210938 452.589844 C 736.191406 452.609375 736.152344 452.628906 736.113281 452.648438 L 130.277344 797.808594 C 120.929688 803.152344 110.566406 805.902344 100.089844 805.902344 Z M 100.089844 805.902344 " fill-opacity="1" fill-rule="nonzero"/></g><g clip-path="url(#60d608c626)"><path fill="#0277bd" d="M 38.476562 368.730469 L 38.476562 743.496094 C 38.4375 754.246094 41.164062 764.859375 46.394531 774.230469 C 54.503906 788.777344 67.746094 799.238281 83.699219 803.648438 C 89.117188 805.15625 94.632812 805.902344 100.109375 805.902344 C 110.585938 805.902344 120.949219 803.152344 130.296875 797.808594 L 460.988281 609.410156 Z M 38.476562 368.730469 " fill-opacity="1" fill-rule="nonzero"/></g><path fill="#29b6f6" d="M 133.886719 257.703125 L 133.886719 795.746094 L 699.933594 473.265625 L 225.765625 203.144531 C 216.339844 197.742188 205.882812 194.785156 194.625 195.03125 C 160.714844 195.453125 133.484375 223.6875 133.886719 257.703125 Z M 133.886719 257.703125 " fill-opacity="1" fill-rule="nonzero"/><path fill="#039be5" d="M 133.886719 423.078125 L 133.886719 795.746094 L 203.34375 756.171875 L 460.96875 609.410156 Z M 133.886719 423.078125 " fill-opacity="1" fill-rule="nonzero"/><path fill="#29b6f6" d="M 434.292969 557.734375 C 431.46875 557.734375 428.625 557.355469 425.800781 556.609375 C 417.082031 554.261719 409.582031 548.269531 405.210938 540.210938 C 402.40625 535.039062 400.9375 529.121094 401.035156 523.164062 L 401.035156 286.566406 C 400.84375 268.011719 415.515625 252.550781 433.738281 252.28125 C 439.980469 252.207031 445.972656 253.867188 451.257812 257.152344 L 653.011719 377.816406 C 667.476562 386.65625 672.398438 405.25 664.347656 420.234375 C 661.65625 425.214844 657.761719 429.339844 653.050781 432.164062 C 653.050781 432.164062 653.03125 432.164062 653.011719 432.183594 L 451.027344 553.003906 C 445.953125 556.113281 440.191406 557.734375 434.292969 557.734375 Z M 434.292969 557.734375 " fill-opacity="1" fill-rule="nonzero"/><path fill="#81d4fa" d="M 425.800781 556.609375 C 428.605469 557.355469 431.46875 557.734375 434.292969 557.734375 C 440.191406 557.734375 445.953125 556.113281 451.027344 553.003906 L 640.722656 439.53125 L 401.035156 302.984375 L 401.035156 523.164062 C 400.957031 529.121094 402.40625 535.019531 405.210938 540.210938 C 409.582031 548.285156 417.101562 554.261719 425.800781 556.609375 Z M 425.800781 556.609375 " fill-opacity="1" fill-rule="nonzero"/></svg>